<svg xmlns="http://www.w3.org/2000/svg" xmlns:xlink="http://www.w3.org/1999/xlink" version="1.1" width="256" height="256" viewBox="0 0 256 256" xml:space="preserve">

<defs>
</defs>
<g style="stroke: none; stroke-width: 0; stroke-dasharray: none; stroke-linecap: butt; stroke-linejoin: miter; stroke-miterlimit: 10; fill: none; fill-rule: nonzero; opacity: 1;" transform="translate(1.4065934065934016 1.4065934065934016) scale(2.81 2.81)" >
	<path d="M 77.467 17.233 L 61.702 1.467 C 60.755 0.521 59.496 0 58.157 0 H 16.078 c -2.764 0 -5.013 2.249 -5.013 5.013 v 79.975 c 0 2.764 2.249 5.013 5.013 5.013 h 57.844 c 2.764 0 5.013 -2.249 5.013 -5.013 v -64.21 C 78.935 19.439 78.413 18.18 77.467 17.233 z M 61.405 6.828 l 10.701 10.702 H 62.15 c -0.411 0 -0.745 -0.334 -0.745 -0.745 V 6.828 z M 73.922 86 H 16.078 c -0.559 0 -1.013 -0.454 -1.013 -1.013 V 5.013 C 15.065 4.454 15.52 4 16.078 4 h 41.327 v 12.784 c 0 2.617 2.129 4.745 4.745 4.745 h 12.784 v 63.458 C 74.935 85.546 74.48 86 73.922 86 z" style="stroke: none; stroke-width: 1; stroke-dasharray: none; stroke-linecap: butt; stroke-linejoin: miter; stroke-miterlimit: 10; fill: rgb(0,0,0); fill-rule: nonzero; opacity: 1;" transform=" matrix(1 0 0 1 0 0) " stroke-linecap="round" />
	<path d="M 24.733 54.999 h 7.299 c 1.104 0 2 -0.896 2 -2 s -0.896 -2 -2 -2 h -5.299 V 36.534 c 0 -1.104 -0.896 -2 -2 -2 s -2 0.896 -2 2 v 16.465 C 22.733 54.104 23.629 54.999 24.733 54.999 z" style="stroke: none; stroke-width: 1; stroke-dasharray: none; stroke-linecap: butt; stroke-linejoin: miter; stroke-miterlimit: 10; fill: rgb(0,0,0); fill-rule: nonzero; opacity: 1;" transform=" matrix(1 0 0 1 0 0) " stroke-linecap="round" />
	<path d="M 41.275 54.999 h 3.12 c 3.061 0 5.55 -2.49 5.55 -5.551 v -9.365 c 0 -3.06 -2.489 -5.55 -5.55 -5.55 h -3.12 c -3.06 0 -5.55 2.49 -5.55 5.55 v 9.365 C 35.725 52.509 38.215 54.999 41.275 54.999 z M 39.725 40.083 c 0 -0.854 0.695 -1.55 1.55 -1.55 h 3.12 c 0.854 0 1.55 0.695 1.55 1.55 v 9.365 c 0 0.855 -0.695 1.551 -1.55 1.551 h -3.12 c -0.854 0 -1.55 -0.695 -1.55 -1.551 V 40.083 z" style="stroke: none; stroke-width: 1; stroke-dasharray: none; stroke-linecap: butt; stroke-linejoin: miter; stroke-miterlimit: 10; fill: rgb(0,0,0); fill-rule: nonzero; opacity: 1;" transform=" matrix(1 0 0 1 0 0) " stroke-linecap="round" />
	<path d="M 65.267 42.766 h -4.133 c -1.104 0 -2 0.896 -2 2 s 0.896 2 2 2 h 2.133 v 2.683 c 0 0.855 -0.695 1.551 -1.55 1.551 h -3.12 c -0.854 0 -1.55 -0.695 -1.55 -1.551 v -9.365 c 0 -0.854 0.695 -1.55 1.55 -1.55 h 4.014 c 1.104 0 2 -0.896 2 -2 s -0.896 -2 -2 -2 h -4.014 c -3.061 0 -5.55 2.49 -5.55 5.55 v 9.365 c 0 3.061 2.489 5.551 5.55 5.551 h 3.12 c 3.061 0 5.55 -2.49 5.55 -5.551 v -4.682 C 67.267 43.662 66.371 42.766 65.267 42.766 z" style="stroke: none; stroke-width: 1; stroke-dasharray: none; stroke-linecap: butt; stroke-linejoin: miter; stroke-miterlimit: 10; fill: rgb(0,0,0); fill-rule: nonzero; opacity: 1;" transform=" matrix(1 0 0 1 0 0) " stroke-linecap="round" />
	<path d="M 65.267 61.239 H 24.733 c -1.104 0 -2 0.896 -2 2 s 0.896 2 2 2 h 40.533 c 1.104 0 2 -0.896 2 -2 S 66.371 61.239 65.267 61.239 z" style="stroke: none; stroke-width: 1; stroke-dasharray: none; stroke-linecap: butt; stroke-linejoin: miter; stroke-miterlimit: 10; fill: rgb(0,0,0); fill-rule: nonzero; opacity: 1;" transform=" matrix(1 0 0 1 0 0) " stroke-linecap="round" />
	<path d="M 65.267 71.012 H 24.733 c -1.104 0 -2 0.896 -2 2 s 0.896 2 2 2 h 40.533 c 1.104 0 2 -0.896 2 -2 S 66.371 71.012 65.267 71.012 z" style="stroke: none; stroke-width: 1; stroke-dasharray: none; stroke-linecap: butt; stroke-linejoin: miter; stroke-miterlimit: 10; fill: rgb(0,0,0); fill-rule: nonzero; opacity: 1;" transform=" matrix(1 0 0 1 0 0) " stroke-linecap="round" />
</g>
</svg>