<?xml version="1.0" ?><svg id="Layer_1" style="enable-background:new 0 0 512 512;" version="1.1" viewBox="0 0 512 512" xml:space="preserve" xmlns="http://www.w3.org/2000/svg" xmlns:xlink="http://www.w3.org/1999/xlink"><style type="text/css">
	.st0{fill:none;stroke:#000000;stroke-width:2;stroke-linecap:round;stroke-linejoin:round;stroke-miterlimit:10;}
	.st1{stroke:#000000;stroke-width:2;stroke-linecap:round;stroke-linejoin:round;stroke-miterlimit:10;}
	.st2{fill:#FFFFFF;}
</style><g><g><path d="M443.36,511H68.64c-17.55,0-31.84-14.28-31.84-31.84V167.71c0-17.55,14.28-31.83,31.84-31.83h374.73    c17.55,0,31.84,14.28,31.84,31.83v311.45C475.2,496.72,460.92,511,443.36,511z M68.64,151.33c-9.03,0-16.38,7.35-16.38,16.38    v311.45c0,9.03,7.35,16.38,16.38,16.38h374.73c9.03,0,16.38-7.35,16.38-16.38V167.71c0-9.03-7.35-16.38-16.38-16.38H68.64z"/></g><g><path d="M166.92,476.03c-53.38,0-96.82-43.43-96.82-96.81s43.44-96.81,96.82-96.81s96.81,43.43,96.81,96.81    S220.3,476.03,166.92,476.03z M166.92,297.86c-44.86,0-81.36,36.5-81.36,81.36c0,44.86,36.5,81.36,81.36,81.36    s81.36-36.5,81.36-81.36C248.27,334.36,211.78,297.86,166.92,297.86z"/></g><g><path d="M166.49,428.57c-26.52,0-48.11-21.58-48.11-48.11c0-26.52,21.58-48.11,48.11-48.11s48.11,21.58,48.11,48.11    C214.6,406.99,193.02,428.57,166.49,428.57z M166.49,347.81c-18.01,0-32.65,14.65-32.65,32.65c0,18.01,14.65,32.65,32.65,32.65    s32.65-14.65,32.65-32.65C199.15,362.46,184.5,347.81,166.49,347.81z"/></g><g><path d="M435.83,143h-52.45c-4.27,0-7.73-3.46-7.73-7.73V76.16c0-4.27,3.46-7.73,7.73-7.73h52.45c4.27,0,7.73,3.46,7.73,7.73    v59.11C443.56,139.54,440.1,143,435.83,143z M391.11,127.55h37V83.89h-37V127.55z"/></g><g><path d="M409.61,83.89c-4.27,0-7.73-3.46-7.73-7.73V8.73c0-4.27,3.46-7.73,7.73-7.73c4.27,0,7.73,3.46,7.73,7.73v67.44    C417.34,80.43,413.88,83.89,409.61,83.89z"/></g><g><path d="M422.51,264.56H89.49c-4.27,0-7.73-3.46-7.73-7.73v-71.6c0-4.27,3.46-7.73,7.73-7.73h333.03c4.27,0,7.73,3.46,7.73,7.73    v71.6C430.24,261.1,426.78,264.56,422.51,264.56z M97.21,249.1h317.57v-56.14H97.21V249.1z"/></g><g><g><path d="M134.58,260.4c-4.27,0-7.73-3.46-7.73-7.73v-31.64c0-4.27,3.46-7.73,7.73-7.73c4.27,0,7.73,3.46,7.73,7.73v31.64     C142.31,256.94,138.85,260.4,134.58,260.4z"/></g><g><path d="M190.09,260.4c-4.27,0-7.73-3.46-7.73-7.73v-31.64c0-4.27,3.46-7.73,7.73-7.73s7.73,3.46,7.73,7.73v31.64     C197.82,256.94,194.36,260.4,190.09,260.4z"/></g><g><path d="M314.97,260.4c-4.27,0-7.73-3.46-7.73-7.73v-31.64c0-4.27,3.46-7.73,7.73-7.73c4.27,0,7.73,3.46,7.73,7.73v31.64     C322.7,256.94,319.24,260.4,314.97,260.4z"/></g><g><path d="M252.53,260.4c-4.27,0-7.73-3.46-7.73-7.73v-31.64c0-4.27,3.46-7.73,7.73-7.73s7.73,3.46,7.73,7.73v31.64     C260.26,256.94,256.8,260.4,252.53,260.4z"/></g><g><path d="M377.42,260.4c-4.27,0-7.73-3.46-7.73-7.73v-31.64c0-4.27,3.46-7.73,7.73-7.73c4.27,0,7.73,3.46,7.73,7.73v31.64     C385.15,256.94,381.69,260.4,377.42,260.4z"/></g></g><g><path d="M402.67,359.88c-15.73,0-28.54-12.8-28.54-28.54c0-15.74,12.81-28.54,28.54-28.54c15.74,0,28.55,12.81,28.55,28.54    C431.21,347.08,418.41,359.88,402.67,359.88z M402.67,318.26c-7.21,0-13.09,5.87-13.09,13.09c0,7.21,5.87,13.09,13.09,13.09    c7.22,0,13.09-5.87,13.09-13.09C415.76,324.13,409.89,318.26,402.67,318.26z"/></g></g></svg>